<svg xmlns="http://www.w3.org/2000/svg" xmlns:xlink="http://www.w3.org/1999/xlink" version="1.1" x="0px" y="0px" viewBox="0 0 60 75" enable-background="new 0 0 60 60" xml:space="preserve"><g><path fill="#ffffff" d="M57.0383301,9.2269897H2.9622183c-1.3578491,0-2.4622192,1.1044922-2.4622192,2.4622803v36.62146   c0,1.3579102,1.1043701,2.4621582,2.4622192,2.4621582h54.0761108c1.3573608,0,2.4616699-1.104248,2.4616699-2.4621582V11.68927   C59.5,10.3314819,58.3956909,9.2269897,57.0383301,9.2269897z M58.3824463,11.0813599l-0.5515137-0.6361084   C58.0712891,10.5990601,58.2634888,10.819397,58.3824463,11.0813599z M57.0383301,10.2103882   c0.2391968,0,0.4620361,0.0625,0.6621094,0.1638184L32.137146,32.5639038c-1.2181416,1.057373-3.0546894,1.0593262-4.2737446,0   L2.3057241,10.3710327c0.1987305-0.0994873,0.4196167-0.1606445,0.6564941-0.1606445H57.0383301z M1.4833364,11.68927   c0-0.2186279,0.0506592-0.4244385,0.1361694-0.6114502L23.4544048,30.038147L1.7461538,49.1488647   c-0.164978-0.2385254-0.2628174-0.5268555-0.2628174-0.8381348V11.68927z M2.9622183,49.7894897   c-0.1356201,0-0.2644653-0.0241699-0.3893433-0.0585938l21.6305542-19.0422363l3.015625,2.6185303   c0.7926636,0.6876221,1.7870483,1.0323486,2.7809448,1.0323486c0.9943848,0,1.9887695-0.3447266,2.781496-1.0323486   l3.0147705-2.6168213l21.6184692,19.0445557c-0.1209106,0.0321045-0.2455444,0.0545654-0.3764038,0.0545654H2.9622183z    M58.5166626,48.31073c0,0.4995117-0.2504272,0.9401855-0.6307373,1.2080078l0.3369141-0.3820801L36.5454102,30.039978   L58.383728,11.0836792c0.0837402,0.1853027,0.1329346,0.3894043,0.1329346,0.6055908V48.31073z"/></g></svg>