<?xml version="1.0" encoding="UTF-8"?>
<svg width="48px" height="48px" viewBox="0 0 48 48" version="1.1" xmlns="http://www.w3.org/2000/svg" xmlns:xlink="http://www.w3.org/1999/xlink">
    <!-- Generator: Sketch 48.2 (47327) - http://www.bohemiancoding.com/sketch -->
    <title>Artboard</title>
    <desc>Created with Sketch.</desc>
    <defs></defs>
    <g id="Page-1" stroke="none" stroke-width="1" fill="none" fill-rule="evenodd">
        <g id="Artboard" fill="#FFFFFF" fill-rule="nonzero">
            <path d="M0,4.00989318 C0,1.79529033 1.79405245,0 4.00989318,0 L43.9901068,0 C46.2047097,0 48,1.79405245 48,4.00989318 L48,43.9901068 C48,46.2047097 46.2059475,48 43.9901068,48 L4.00989318,48 C1.79529033,48 0,46.2059475 0,43.9901068 L0,4.00989318 Z M19,18.3 L19,41.3 L26,41.3 L26,30.159 C26,26.425 27.375,24.05 30.68,24.05 C33.063,24.05 34,26.253 34,30.159 L34,41.3 L41,41.3 L41,28.597 C41,21.738 39.359,18 32.445,18 C28.838,18 26.437,19.688 25.5,21.566 L25.5,18.3 L19,18.3 Z M7,41 L14,41 L14,18 L7,18 L7,41 Z M15,10.5 C15,8.015 12.985,6 10.5,6 C8.015,6 6,8.015 6,10.5 C6,12.985 8.015,15 10.5,15 C12.985,15 15,12.985 15,10.5 Z" id="Combined-Shape"></path>
        </g>
    </g>
</svg>