<?xml version="1.0" encoding="UTF-8"?>
<svg width="169px" height="170px" viewBox="0 0 169 170" version="1.1" xmlns="http://www.w3.org/2000/svg" xmlns:xlink="http://www.w3.org/1999/xlink">
    <!-- Generator: Sketch 47.1 (45422) - http://www.bohemiancoding.com/sketch -->
    <title>logo</title>
    <desc>Created with Sketch.</desc>
    <defs></defs>
    <g id="Page-1" stroke="none" stroke-width="1" fill="none" fill-rule="evenodd">
        <g id="logo" fill-rule="nonzero" fill="#FFFFFF">
            <g id="vector-18" transform="translate(33.500000, 24.000000)">
                <path d="M0.5,0 L0.5,83.1028481 L51,123 L101.5,83.1028481 L101.5,0 L0.5,0 Z M95.5,79.7780854 L51,114.690665 L6.5,79.7780854 L6.5,6 L95.5,6 L95.5,79.7780854 Z" id="Shape"></path>
                <path d="M58,28 C58,25.016683 54.3435294,21.4052993 53.6023529,20.6987242 C53.53117,17.6280337 52.6168607,14.6287764 50.9505882,12 C49.3146925,14.6100707 48.4179657,17.5804514 48.3482353,20.6202159 C47.6564706,21.3110893 44,24.8596663 44,28 C45.6835166,27.0053325 47.4587179,26.1591689 49.3035294,25.4720314 C49.5374137,26.0392089 49.8125939,26.5901095 50.1270588,27.1207066 C50.2917647,27.4190383 51.5764706,27.4504416 51.7741176,27.1207066 C52.0856248,26.5886485 52.3607087,26.0379407 52.5976471,25.4720314 C54.4764275,26.1539016 56.2849336,27.0001711 58,28 L58,28 Z" id="Shape"></path>
                <polygon id="Shape" points="13.5 59 13.5 76 41 59"></polygon>
                <polygon id="Shape" points="89.5 59 62 59 89.5 76"></polygon>
                <polygon id="Shape" points="66.5 93.7818182 55.2657563 64 51.0162815 70.0765957 46.7668067 64 35.5 93.8630561 51 106"></polygon>
                <polygon id="Shape" points="38 68 19 79.7127072 30.091623 88"></polygon>
                <polygon id="Shape" points="71.908377 88 83 79.7127072 64 68"></polygon>
                <polygon id="Shape" points="51.0157343 58 55.5 51.5524752 50.8583916 34 46.5 51.5049505"></polygon>
            </g>
        </g>
    </g>
</svg>