<svg xmlns="http://www.w3.org/2000/svg" data-name="Layer 1" viewBox="0 0 100 125" x="0px" y="0px"><title>web</title><g data-name="Go to Web"><path fill="#ffffff" d="M0.54,44.31c-2.19,11.82,2,30.79,18.77,42.33,16,11,36.26,9.54,49.35.41-2.39.5-4.72,1.13-7.09,1.45-14.37,2-27.78-.46-39.65-9.21A34.28,34.28,0,0,1,10.36,64.48c-0.14-.34-0.27-0.68-0.4-1-0.05-.15-0.08-0.3-0.2-0.79C19,73.38,30.57,79,44.07,80.72s26.24-.4,37.73-8.58l5.37,5.42c0.34,0.35.68,0.7,1,1,1.41,1.34,3,.87,3.43-1,0.77-3.41,1.5-6.82,2.24-10.23q3-13.62,6-27.24c0.53-2.42-.38-3.33-2.78-2.8L59.85,45.5a2.17,2.17,0,0,0-2,1.4,2.21,2.21,0,0,0,.84,2.26c2.12,2.08,4.2,4.18,6.36,6.34a31.58,31.58,0,0,1-7.6,4.88,49.11,49.11,0,0,1-25,4.19A42.93,42.93,0,0,1,13.2,58.52,31.78,31.78,0,0,1,1,45.1C0.84,44.86.71,44.63,0.54,44.31Z"/><path fill="#ffffff" d="M62.31,32.65A1.07,1.07,0,0,0,61,31.72c-4.51,0-9,0-13.54,0-0.34,0-.69.06-1,0.09V47.94h6.43L54.7,52H46.37v7.72l-4,.57V52.09H24l0.39,5.84c-1.3-.52-2.47-0.94-3.6-1.47a1.33,1.33,0,0,1-.56-0.92C20.1,54.39,20,53.23,19.93,52c-1.72,0-3.35-.1-5,0a4.84,4.84,0,0,1-4-1.41C10.14,49.79,9.21,49,8.3,48.2l0.19-.3H19.66l2.5-16.17c-3,0-6.28,0-9.52,0a1.28,1.28,0,0,0-.81.73,63.77,63.77,0,0,0-2.76,6.74c-0.77,2.54-1.16,5.19-1.74,7.88a18,18,0,0,1-4.64-8.77,7.87,7.87,0,0,1,.45-4.66C10.32,17.13,22.85,7.49,40.85,5.8,54.58,4.52,66.43,9.26,76.17,19.06a43.23,43.23,0,0,1,9.95,15.89c-2.34.51-4.59,1-6.85,1.46a1.05,1.05,0,0,1-.72-0.56c-0.51-1-1-2-1.42-3.1a1.5,1.5,0,0,0-1.66-1c-2.11.07-4.23,0-6.34,0H66.35L67.92,39l-3.84.85C63.47,37.36,62.86,35,62.31,32.65Zm-21,15.28c0.28,0,.56,0,0.94-0.07v-16a6.63,6.63,0,0,0-.81-0.1H27.81a1,1,0,0,0-1.29.74,56.78,56.78,0,0,0-2.43,15,2.61,2.61,0,0,0,.11.49H41.35Zm0.94-20.32V13.78c-5.48.32-11.64,7.6-13.81,13.84H42.29Zm4.18-.05H60.17c-0.58-5.27-9-13.78-13.71-13.79V27.57Zm11.12-12.1a4.72,4.72,0,0,0,.35.61,34.8,34.8,0,0,1,6.48,10.51A1.44,1.44,0,0,0,66,27.68c2.51-.07,5,0,7.85,0A37.38,37.38,0,0,0,57.58,15.47ZM14.93,27.66c3,0,5.75,0,8.48,0A0.85,0.85,0,0,0,24,27.23a41.52,41.52,0,0,1,6.9-11.52A35.68,35.68,0,0,0,14.93,27.66Z"/></g></svg>